<?xml version="1.0" encoding="UTF-8" standalone="no"?>
<!-- Created with Inkscape (http://www.inkscape.org/) -->

<svg
   width="141.87213mm"
   height="167.49258mm"
   viewBox="0 0 141.87213 167.49258"
   version="1.1"
   id="svg1"
   xml:space="preserve"
   sodipodi:docname="Armory1.svg"
   inkscape:version="1.3.2 (091e20e, 2023-11-25, custom)"
   xmlns:inkscape="http://www.inkscape.org/namespaces/inkscape"
   xmlns:sodipodi="http://sodipodi.sourceforge.net/DTD/sodipodi-0.dtd"
   xmlns="http://www.w3.org/2000/svg"
   xmlns:svg="http://www.w3.org/2000/svg"><sodipodi:namedview
     id="namedview1"
     pagecolor="#ffffff"
     bordercolor="#000000"
     borderopacity="0.25"
     inkscape:showpageshadow="2"
     inkscape:pageopacity="0.0"
     inkscape:pagecheckerboard="0"
     inkscape:deskcolor="#d1d1d1"
     inkscape:document-units="mm"
     inkscape:zoom="1.8529552"
     inkscape:cx="268.2202"
     inkscape:cy="316.52142"
     inkscape:window-width="2560"
     inkscape:window-height="1369"
     inkscape:window-x="2552"
     inkscape:window-y="-8"
     inkscape:window-maximized="1"
     inkscape:current-layer="svg1" /><defs
     id="defs1" /><path
     style="fill:#ffffff;fill-opacity:1"
     d="m 67.173734,165.60033 c -1.74625,-1.03476 -3.413121,-2.01518 -3.704163,-2.17873 C 61.47707,162.30192 55.33893,158.14852 52.357072,155.90228 42.860726,148.74865 33.639545,139.55821 26.698718,130.32946 11.801507,110.52164 2.7774573,85.947474 0.31992835,58.495084 c -0.690905,-7.71791 -0.176372,-30.58367 0.72087395,-32.03544 0.05397,-0.0873 2.990184,-0.23748 6.524911,-0.33365 C 24.88774,25.654704 37.712501,22.463834 50.976969,15.325055 57.417832,11.858655 61.429964,8.8301646 68.700684,1.9466226 L 70.756794,6.3867073e-7 71.261534,0.35353464 c 0.27761,0.194444 1.67482,1.47935396 3.10492,2.85535596 C 89.927494,18.181345 108.8855,25.402264 134.64248,26.167434 l 6.08542,0.18078 0.59948,6.61458 c 1.4773,16.30028 -0.0842,34.93226 -4.26926,50.94264 -9.2746,35.480586 -29.99582,62.708416 -61.885396,81.317866 -2.149,1.25407 -4.11353,2.27523 -4.36563,2.26926 -0.25209,-0.006 -1.88711,-0.85748 -3.63336,-1.89223 z m 8.46667,-9.15015 c 21.12936,-13.19759 38.056276,-32.42713 47.098186,-53.50509 0.53061,-1.23693 1.12546,-2.60615 1.32189,-3.042706 4.48274,-9.96296 8.78176,-27.4218 9.90283,-40.21667 0.7845,-8.95346 0.85488,-22.11193 0.1367,-25.5578 l -0.14318,-0.68697 -3.8905,-0.16883 c -21.80893,-0.9464 -43.807766,-9.24445 -57.269086,-21.602119 -2.0146,-1.8494404 -1.87657,-1.8335604 -3.42039,-0.39358 -4.543581,4.23797 -11.40407,8.77694 -18.491836,12.234409 -3.637414,1.77435 -4.859028,2.29753 -9.111279,3.90209 -8.820149,3.32822 -22.815578,5.94676 -31.7839627,5.94676 -1.20107,0 -2.243393,0.0965 -2.316273,0.2144 -0.772672,1.25021 -0.689962,19.13123 0.123842,26.7731 2.2964707,21.56458 8.7217797,40.864516 19.1584237,57.546876 10.060956,16.08183 25.430406,30.84136 41.916755,40.25332 l 1.96337,1.12087 0.81475,-0.41746 c 0.44812,-0.2296 2.24351,-1.30987 3.98976,-2.4006 z m -7.04797,-6.9727 c -3.26093,-1.97521 -10.356246,-6.86736 -11.075987,-7.63679 -0.07276,-0.0778 -0.787136,-0.67159 -1.5875,-1.31958 -21.643157,-17.5226 -35.609194,-42.795116 -40.06534,-72.501016 -1.071026,-7.13976 -1.320568,-10.79842 -1.33154,-19.52238 -0.01189,-9.45622 -0.204252,-8.77759 2.489849,-8.78399 3.956133,-0.009 13.777997,-1.55429 19.592448,-3.08173 11.713217,-3.07703 23.588093,-8.93915 32.26781,-15.929239 l 1.97302,-1.58895 1.59886,1.25792 c 0.87937,0.69185 2.23385,1.753439 3.00996,2.359079 11.56631,9.02578 30.783736,15.76879 48.288536,16.94347 1.69378,0.11366 3.17005,0.29726 3.2806,0.40799 0.41094,0.41161 0.19872,15.98377 -0.28338,20.79408 -3.71906,37.10805 -20.89057,66.805126 -49.786446,86.102636 -2.47386,1.65211 -4.87154,3.19166 -5.32818,3.42123 l -0.83026,0.4174 z"
     id="path11" /></svg>
