<?xml version="1.0" encoding="UTF-8" standalone="no"?>
<!-- Created with Inkscape (http://www.inkscape.org/) -->

<svg
   width="84.66185mm"
   height="77.433739mm"
   viewBox="0 0 84.66185 77.433739"
   version="1.1"
   id="svg1"
   xml:space="preserve"
   sodipodi:docname="baby1.svg"
   inkscape:version="1.3.2 (091e20e, 2023-11-25, custom)"
   xmlns:inkscape="http://www.inkscape.org/namespaces/inkscape"
   xmlns:sodipodi="http://sodipodi.sourceforge.net/DTD/sodipodi-0.dtd"
   xmlns="http://www.w3.org/2000/svg"
   xmlns:svg="http://www.w3.org/2000/svg"><sodipodi:namedview
     id="namedview1"
     pagecolor="#ffffff"
     bordercolor="#000000"
     borderopacity="0.25"
     inkscape:showpageshadow="2"
     inkscape:pageopacity="0.0"
     inkscape:pagecheckerboard="0"
     inkscape:deskcolor="#d1d1d1"
     inkscape:document-units="mm"
     inkscape:zoom="4.0080236"
     inkscape:cx="159.9292"
     inkscape:cy="146.33147"
     inkscape:window-width="2560"
     inkscape:window-height="1369"
     inkscape:window-x="2552"
     inkscape:window-y="-8"
     inkscape:window-maximized="1"
     inkscape:current-layer="svg1" /><defs
     id="defs1" /><path
     style="fill:#ffffff;fill-opacity:1"
     d="m 37.992585,77.312519 c -2.907507,-0.48153 -5.500006,-2.38796 -6.77337,-4.98091 -0.652657,-1.32901 -0.732997,-1.78272 -0.732816,-4.13849 1.81e-4,-2.35086 0.07823,-2.79331 0.700035,-3.96874 0.925766,-1.75002 2.66267,-3.43009 4.457357,-4.31152 1.255826,-0.61677 1.785756,-0.71557 3.838234,-0.71557 2.06471,0 2.57908,0.0971 3.86941,0.73082 1.77165,0.87005 3.75973,2.90603 4.52659,4.63567 0.7731,1.74368 0.93055,4.66412 0.34757,6.44648 -1.42383,4.35313 -5.78479,7.03894 -10.23301,6.30226 z m 3.96648,-5.35966 c 3.33805,-2.20902 2.07375,-7.60668 -1.88627,-8.05304 -1.58987,-0.1792 -2.907978,0.29567 -3.873699,1.39557 -1.008583,1.14871 -1.40177,2.56843 -1.089949,3.93559 0.324659,1.42345 1.016748,2.29119 2.404,3.01412 1.464648,0.76327 3.003808,0.6621 4.445918,-0.29224 z m 20.84611,5.35132 c -3.09561,-0.5095 -5.97218,-2.85252 -7.0599,-5.75042 -0.44983,-1.19845 -0.54681,-1.94366 -0.47178,-3.62522 0.1625,-3.6416 1.95891,-6.40392 5.19961,-7.99536 1.30179,-0.63928 1.81111,-0.73589 3.87976,-0.73589 2.0647,0 2.57907,0.0971 3.8694,0.73082 1.77165,0.87005 3.75973,2.90603 4.5266,4.63567 0.65751,1.48299 0.91121,4.50742 0.5042,6.01059 -1.2213,4.51049 -5.84332,7.48767 -10.44789,6.72981 z m 3.42594,-4.98499 c 1.68709,-0.76619 2.35508,-1.91223 2.35508,-4.04052 0,-1.37154 -0.12198,-1.92991 -0.54552,-2.49719 -0.86608,-1.16003 -1.8162,-1.73729 -3.09705,-1.88166 -1.58987,-0.1792 -2.90798,0.29567 -3.8737,1.39557 -2.07784,2.36653 -1.39872,5.75052 1.41006,7.02621 1.36624,0.62051 2.38092,0.61986 3.75113,-0.002 z m -18.94388,-14.75958 c -1.65058,-0.17431 -5.90552,-1.19017 -7.80521,-1.86348 -4.915792,-1.74234 -9.275575,-4.47467 -12.474798,-7.81812 -3.107456,-3.24755 -5.004176,-6.34661 -6.13408,-10.02252 -0.600722,-1.95433 -1.214278,-5.91237 -0.976216,-6.29756 0.238635,-0.38612 -0.39644,-2.63976 -1.19687,-4.24723 -0.761466,-1.52922 -2.575827,-3.40778 -4.331614,-4.48487 -0.570074,-0.34971 -1.998749,-0.9587 -3.174832,-1.3533 -1.9245171,-0.64572 -2.2097911,-0.68051 -2.8529661,-0.34791 -0.47944,0.24792 -1.634545,0.36955 -3.509783,0.36955 -2.784746,0 -2.798643,-0.003 -3.733632,-0.86006 -1.71405599,-1.570813 -1.36949399,-4.251503 0.68167,-5.303383 1.400609,-0.71826 5.895294,-0.55306 7.011458,0.25771 0.436563,0.31712 1.5676571,0.76373 2.5135421,0.99247 0.945885,0.22875 2.850885,0.96974 4.233333,1.64665 4.247262,2.07967 7.30253,5.596253 8.56921,9.863073 0.234643,0.79039 0.426624,1.83219 0.426624,2.3151 v 0.87802 h 30.064394 30.06439 l -0.18575,1.88514 c -1.21249,12.30481 -12.12479,22.22194 -26.73783,24.29941 -1.74272,0.24775 -8.41733,0.30607 -10.45104,0.0913 z m 9.59977,-31.89825 c -0.29668,-1.05503 -1.93887,-6.859333 -3.6493,-12.898453 -1.71042,-6.0391095 -3.16213,-11.1677295 -3.226,-11.3969295 -0.24129,-0.86579001 5.64739,-1.63100001 9.83339,-1.27781001 12.87041,1.08592001 23.45952,12.01282951 24.39799,25.17631251 l 0.16506,2.3151 h -13.49086 -13.49085 z"
     id="path1" /></svg>
