<?xml version="1.0" encoding="UTF-8" standalone="no"?>
<!-- Created with Inkscape (http://www.inkscape.org/) -->

<svg
   width="98.624435mm"
   height="86.630615mm"
   viewBox="0 0 98.624435 86.630615"
   version="1.1"
   id="svg1"
   xml:space="preserve"
   inkscape:version="1.3.2 (091e20e, 2023-11-25, custom)"
   sodipodi:docname="build1.svg"
   xmlns:inkscape="http://www.inkscape.org/namespaces/inkscape"
   xmlns:sodipodi="http://sodipodi.sourceforge.net/DTD/sodipodi-0.dtd"
   xmlns="http://www.w3.org/2000/svg"
   xmlns:svg="http://www.w3.org/2000/svg"><sodipodi:namedview
     id="namedview1"
     pagecolor="#ffffff"
     bordercolor="#000000"
     borderopacity="0.25"
     inkscape:showpageshadow="2"
     inkscape:pageopacity="0.0"
     inkscape:pagecheckerboard="0"
     inkscape:deskcolor="#d1d1d1"
     inkscape:document-units="mm"
     inkscape:zoom="0.97890839"
     inkscape:cx="307.48536"
     inkscape:cy="261.00502"
     inkscape:window-width="2560"
     inkscape:window-height="1369"
     inkscape:window-x="2552"
     inkscape:window-y="-8"
     inkscape:window-maximized="1"
     inkscape:current-layer="svg1" /><defs
     id="defs1" /><path
     style="fill:#ffffff;fill-opacity:1"
     d="M 10.534056,86.57195 C 9.6324049,86.45317 8.2590429,85.83849 7.6155419,85.26571 5.6301179,83.49848 0.98855988,78.98824 0.73014988,78.57512 c -1.018625,-1.62847 -0.966437,-3.9211 0.125136,-5.49727 0.39070802,-0.56416 0.80127202,-0.94555 9.61801712,-8.93443 3.04072,-2.7552 6.895539,-6.25788 8.566264,-7.78372 1.670726,-1.52585 5.443527,-4.9527 8.384004,-7.61524 2.940476,-2.66254 6.685942,-6.06222 8.323252,-7.55485 1.63731,-1.49264 5.38277,-4.896 8.32325,-7.56303 2.94047,-2.66703 6.05714,-5.49708 6.92591,-6.28901 l 1.5796,-1.43987 1.20805,1.15722 c 0.66443,0.63648 3.0156,2.87586 5.22482,4.97641 2.20921,2.10054 4.03458,3.89052 4.05637,3.97773 0.0218,0.0872 -0.44476,0.65274 -1.03679,1.25674 -0.59202,0.60401 -1.61703,1.65654 -2.2778,2.33897 -0.66076,0.68243 -1.73032,1.77375 -2.3768,2.42516 -0.64648,0.65141 -1.73973,1.76811 -2.42946,2.48156 -0.68973,0.71345 -1.96955,2.02925 -2.84404,2.924 -0.87448,0.89476 -2.43166,2.49367 -3.46038,3.55315 -1.02872,1.05947 -2.64173,2.71189 -3.58447,3.67203 -0.94273,0.96013 -2.74945,2.81284 -4.01492,4.11713 -1.26548,1.30429 -3.32099,3.41199 -4.5678,4.68379 -2.59438,2.64637 -6.307133,6.4502 -8.862857,9.08026 -0.96457,0.99262 -2.797055,2.87071 -4.072191,4.17353 -1.275135,1.30282 -3.656288,3.73886 -5.291451,5.41341 -1.635163,1.67456 -3.132888,3.17195 -3.328279,3.32755 -1.180041,0.9397 -2.728136,1.33369 -4.383529,1.11561 z M 85.209903,44.78296 c -0.87878,-0.29476 -1.33792,-0.62584 -2.74353,-1.97833 -1.42937,-1.37536 -1.89114,-2.03567 -2.12997,-3.04574 -0.18903,-0.79947 -0.0872,-1.31428 0.36454,-1.84191 0.49109,-0.57366 0.65204,-1.0925 0.5573,-1.79646 -0.30057,-2.23327 -3.37582,-5.17474 -6.48402,-6.20195 -0.95535,-0.31573 -1.19581,-0.34929 -2.51446,-0.35098 -2.08287,-0.003 -2.37988,0.14144 -4.70504,2.28272 l -1.79583,1.65382 -3.25021,-3.00233 c -1.78761,-1.65129 -4.23288,-3.88998 -5.43394,-4.97487 l -2.18374,-1.97252 1.15195,-1.11414 c 2.66407,-2.57665 3.25393,-3.40299 3.36761,-4.71776 0.074,-0.85583 -0.11519,-1.67229 -0.61438,-2.65135 -0.28082,-0.55075 -0.66285,-1.00059 -1.53536,-1.80783 -4.81354,-4.4535002 -13.12457,-7.6867102 -21.11907,-8.2158802 -0.75182,-0.0498 -1.39803,-0.11934 -1.43603,-0.15462 -0.038,-0.0353 -0.10077,-0.72503 -0.13946,-1.53278 l -0.0704,-1.46862 0.53433,-0.13368 c 2.06667,-0.51704 6.10271,-1.20893005 8.97908,-1.53928005 2.52486,-0.28997 9.362,-0.29165 11.5432,-0.003 6.61271,0.87558005 11.84131,2.94351005 16.41519,6.49227005 1.1609,0.90071 11.14763,10.0893802 11.71131,10.7754302 0.4452,0.54185 0.64829,1.46219 0.79507,3.60293 0.073,1.06545 0.23375,2.4027 0.35711,2.97168 0.50969,2.35091 1.93077,3.80756 4.37052,4.47992 0.96178,0.26506 1.51255,0.23255 2.17381,-0.12831 0.49968,-0.27268 0.69333,-0.3102 1.60124,-0.3102 1.54352,0 2.07338,0.27844 3.66649,1.92669 0.69,0.71388 1.37902,1.52206 1.53114,1.79595 0.39774,0.7161 0.54252,1.57288 0.39157,2.31721 -0.26477,1.30556 -0.46179,1.53207 -5.232,6.01526 -5.03176,4.72899 -5.00824,4.71216 -6.67558,4.77457 -0.61214,0.0229 -1.08765,-0.025 -1.44848,-0.14607 z"
     id="path2" /></svg>
