<?xml version="1.0" encoding="UTF-8" standalone="no"?>
<!-- Created with Inkscape (http://www.inkscape.org/) -->

<svg
   width="38.149529mm"
   height="22.906597mm"
   viewBox="0 0 38.149529 22.906597"
   version="1.1"
   id="svg1"
   xml:space="preserve"
   inkscape:version="1.3.2 (091e20e, 2023-11-25, custom)"
   sodipodi:docname="build2.svg"
   xmlns:inkscape="http://www.inkscape.org/namespaces/inkscape"
   xmlns:sodipodi="http://sodipodi.sourceforge.net/DTD/sodipodi-0.dtd"
   xmlns="http://www.w3.org/2000/svg"
   xmlns:svg="http://www.w3.org/2000/svg"><sodipodi:namedview
     id="namedview1"
     pagecolor="#ffffff"
     bordercolor="#000000"
     borderopacity="0.25"
     inkscape:showpageshadow="2"
     inkscape:pageopacity="0.0"
     inkscape:pagecheckerboard="0"
     inkscape:deskcolor="#d1d1d1"
     inkscape:document-units="mm"
     inkscape:zoom="0.97890839"
     inkscape:cx="307.48536"
     inkscape:cy="261.00502"
     inkscape:window-width="2560"
     inkscape:window-height="1369"
     inkscape:window-x="2552"
     inkscape:window-y="-8"
     inkscape:window-maximized="1"
     inkscape:current-layer="svg1" /><defs
     id="defs1" /><path
     style="fill:#ffffff;stroke-width:0.356376;fill-opacity:1"
     d="m 1.5021613,21.890044 c -0.251553,-0.19929 -0.55496902,-0.63702 -0.64474902,-0.93027 -0.277,-0.90477 -0.854894,-3.13722 -0.85726800093,-3.31165 C -0.00915572,16.960544 0.42833528,16.260374 1.0492803,15.969284 c 0.222249,-0.10419 0.416907,-0.14824 4.560017,-1.03179 1.428879,-0.30473 3.242112,-0.69406 4.029418,-0.8652 0.7873117,-0.17116 2.5617307,-0.55181 3.9431527,-0.84591 1.38145,-0.29411 3.14258,-0.67128 3.91364,-0.83816 0.77106,-0.16688 2.53286,-0.54519 3.91514,-0.8407 1.38225,-0.29549 2.84793,-0.60969 3.25704,-0.69822 l 0.74386,-0.16096 0.15348,0.57589 c 0.0844,0.31673 0.38547,1.43355 0.66901,2.48183 0.28356,1.04826 0.50783,1.93123 0.4984,1.96216 -0.009,0.031 -0.25494,0.12186 -0.54557,0.2021 -0.29063,0.0802 -0.79506,0.22127 -1.12097,0.31339 -0.32589,0.0921 -0.85097,0.23713 -1.16683,0.32223 -0.31586,0.0851 -0.85279,0.23369 -1.19319,0.3302 -0.34038,0.0965 -0.97051,0.27308 -1.40029,0.39241 -0.42975,0.11932 -1.19606,0.33354 -1.7029,0.47604 -0.50683,0.14251 -1.29992,0.36323 -1.76241,0.49048 -0.46248,0.12726 -1.35115,0.37506 -1.97481,0.55066 -0.62366,0.17561 -1.63468,0.45749 -2.2467,0.6264 -1.273514,0.35148 -3.099069,0.85963 -4.3578547,1.21303 -0.475082,0.13337 -1.376231,0.38438 -2.002551,0.55779 -0.626322,0.17341 -1.796478,0.49821 -2.600354,0.72179 -0.803876,0.22358 -1.533484,0.4171 -1.621356,0.43004 -0.530688,0.0782 -1.072609,-0.0789 -1.534486,-0.44474 z m 30.3317267,0.52477 c -0.21225,-0.24964 -0.2906,-0.43482 -0.46806,-1.10675 -0.18046,-0.68326 -0.19902,-0.97086 -0.0857,-1.32652 0.0897,-0.28151 0.21537,-0.42245 0.44934,-0.50436 0.25445,-0.089 0.3987,-0.22062 0.49945,-0.45558 0.31964,-0.74536 -0.0718,-2.20997 -0.82543,-3.08807 -0.23165,-0.26984 -0.29837,-0.32362 -0.69795,-0.56179 -0.6311,-0.37624 -0.74773,-0.38507 -1.84665,-0.14147 l -0.84878,0.1882 -0.43335,-1.51497 c -0.23834,-0.83326 -0.56806,-1.96682 -0.73273,-2.51905 l -0.29936,-1.00406 0.55426,-0.13721 c 1.28182,-0.3173403 1.61268,-0.4667903 1.88899,-0.8532203 0.17986,-0.25154 0.27271,-0.53831 0.30139,-0.93132 0.0161,-0.22108 -0.0169,-0.42913 -0.13305,-0.83622 -0.64048,-2.24588 -2.56603,-4.74441 -4.89296,-6.34899 -0.21884,-0.15089 -0.40203,-0.28884003 -0.40701,-0.30669003 -0.005,-0.0178 0.10276,-0.24259 0.23964,-0.49953 L 24.344748,3.6686153e-6 24.531408,0.05490367 c 0.72182,0.21243 2.07298,0.72569 3.00598,1.14185003 0.819,0.36526 2.89263,1.59699 3.50092,2.07951 1.84421,1.46276 3.04936,3.04511 3.78359,4.96777 0.18635,0.48799 1.52459,5.1317303 1.56933,5.4456503 0.0353,0.24792 -0.0724,0.56938 -0.42163,1.25839 -0.17388,0.34289 -0.37104,0.78579 -0.43833,0.98409 -0.27787,0.81947 -0.11488,1.52641 0.50129,2.1742 0.24292,0.25534 0.41592,0.34455 0.68275,0.35214 0.20164,0.006 0.26731,0.029 0.54262,0.19259 0.46807,0.27818 0.57749,0.4599 0.75744,1.25711 0.0779,0.34528 0.13821,0.7196 0.13395,0.83179 -0.0111,0.29331 -0.12481,0.58458 -0.30749,0.78775 -0.32043,0.35633 -0.42184,0.39094 -2.69303,0.91877 -2.3957,0.55677 -2.38548,0.5558 -2.90256,0.27463 -0.18972,-0.10345 -0.32523,-0.20376 -0.41238,-0.30627 z"
     id="path2"
     inkscape:export-filename="build.svg"
     inkscape:export-xdpi="96"
     inkscape:export-ydpi="96" /></svg>
