<?xml version="1.0" encoding="UTF-8" standalone="no"?>
<!-- Created with Inkscape (http://www.inkscape.org/) -->

<svg
   width="87.268188mm"
   height="76.347862mm"
   viewBox="0 0 87.268188 76.347862"
   version="1.1"
   id="svg1"
   xml:space="preserve"
   sodipodi:docname="food1.svg"
   inkscape:version="1.3.2 (091e20e, 2023-11-25, custom)"
   xmlns:inkscape="http://www.inkscape.org/namespaces/inkscape"
   xmlns:sodipodi="http://sodipodi.sourceforge.net/DTD/sodipodi-0.dtd"
   xmlns="http://www.w3.org/2000/svg"
   xmlns:svg="http://www.w3.org/2000/svg"><sodipodi:namedview
     id="namedview1"
     pagecolor="#ffffff"
     bordercolor="#000000"
     borderopacity="0.25"
     inkscape:showpageshadow="2"
     inkscape:pageopacity="0.0"
     inkscape:pagecheckerboard="0"
     inkscape:deskcolor="#d1d1d1"
     inkscape:document-units="mm"
     inkscape:zoom="4.0650287"
     inkscape:cx="164.82049"
     inkscape:cy="144.27942"
     inkscape:window-width="2560"
     inkscape:window-height="1369"
     inkscape:window-x="2552"
     inkscape:window-y="-8"
     inkscape:window-maximized="1"
     inkscape:current-layer="svg1" /><defs
     id="defs1" /><path
     style="fill:#ffffff;fill-opacity:1"
     d="m 16.820168,76.220208 c -1.039371,-0.24465 -2.001695,-0.96353 -2.75304,-2.05661 -0.712317,-1.03629 -0.790027,-3.02746 -0.165304,-4.23555 0.388924,-0.75209 5.275441,-5.43288 15.010988,-14.37901 2.124502,-1.95223 5.321449,-4.90428 7.104327,-6.560105 l 3.241592,-3.010595 2.0238,2.199387 c 1.11309,1.209664 2.0238,2.346253 2.0238,2.525753 0,0.3075 -2.94845,3.66504 -6.59824,7.51376 -0.897002,0.94588 -4.11212,4.3987 -7.14471,7.67291 -8.392098,9.06076 -9.33992,9.99931 -10.290966,10.19024 -0.460303,0.0924 -1.015509,0.20519 -1.233791,0.25061 -0.218281,0.0454 -0.766586,-0.004 -1.218456,-0.11079 z m 54.238403,0.005 c -0.45252,-0.10949 -1.0534,-0.36636 -1.33528,-0.57082 -0.43792,-0.31764 -5.36948,-5.5709 -12.39404,-13.20255 C 49.650721,54.109908 36.45897,39.94003 35.730422,39.251725 33.846359,37.471734 31.148747,36.540808 27.828207,36.52473 24.667323,36.509425 22.266771,35.685541 19.992292,33.835394 19.393319,33.348168 14.645702,28.206612 9.4420308,22.409714 -0.33094021,11.522609 -0.61366421,11.139466 0.38713679,10.138665 1.4801818,9.0456197 1.7462338,9.2591217 11.791424,19.290414 c 6.943556,6.933948 9.735748,9.558072 10.170243,9.558072 0.32941,0 0.891171,-0.292244 1.248359,-0.649432 1.38176,-1.38176 1.439497,-1.305998 -8.875568,-11.646435 C 6.5862408,8.7853447 4.8094578,6.8727707 4.8094578,6.2996747 c 0,-0.756824 0.834998,-1.528271 1.654169,-1.528271 0.275912,0 4.5041612,4.028034 9.9984432,9.5249993 8.710037,8.714291 9.595411,9.525 10.402237,9.525 1.06825,0 1.75765,-0.679551 1.75765,-1.73254 0,-0.652399 -1.400191,-2.168466 -9.524999,-10.313259 C 13.029603,5.6933247 9.5719578,2.0380127 9.5719578,1.7060777 c 0,-0.286604 0.185345,-0.78571502 0.411878,-1.10913602 0.9525072,-1.359894 1.1791532,-1.195528 12.8253352,9.30109302 7.181519,6.4726533 11.257861,10.3346313 11.799129,11.1786463 1.280471,1.996676 1.720207,3.623406 1.938353,7.170619 0.175718,2.857362 0.294518,3.429121 1.017048,4.894792 0.44995,0.912736 1.21174,2.076414 1.69286,2.585952 0.48113,0.509538 5.69549,5.391101 11.58747,10.847917 5.89198,5.456817 11.72659,10.873987 12.96579,12.038147 1.2392,1.16417 4.41552,4.12189 7.05849,6.57272 2.64297,2.45083 4.94939,4.8037 5.12539,5.22859 0.45003,1.08648 0.18965,3.18059 -0.51927,4.17617 -0.96649,1.35732 -2.78219,2.02911 -4.41586,1.63383 z m -22.67925,-34.798692 -2.07077,-1.91882 1.5416,-1.442964 c 0.84788,-0.79363 2.24033,-2.090672 3.09434,-2.882314 1.90294,-1.763974 2.81818,-3.073181 3.59572,-5.143517 0.49907,-1.328868 0.60857,-2.212527 0.67212,-5.423958 0.0849,-4.289184 0.37913,-5.594456 1.93857,-8.598958 2.24274,-4.320971 9.10268,-9.4279133 16.58251,-12.3449943 1.80479,-0.703853 2.48703,-0.829808 4.63021,-0.854828 2.99765,-0.035 4.27935,0.440656 6.31287,2.34278 3.35918,3.142114 3.4484,7.2569463 0.29396,13.5561433 -2.84932,5.689867 -6.30305,10.433166 -9.10254,12.501272 -3.35447,2.478089 -5.69918,3.21363 -10.60116,3.325609 -5.89994,0.134777 -7.06741,0.686383 -11.68127,5.519185 l -3.1354,3.284185 z"
     id="path1" /></svg>
