<?xml version="1.0" encoding="UTF-8" standalone="no"?>
<!-- Created with Inkscape (http://www.inkscape.org/) -->

<svg
   width="106.39452mm"
   height="92.657974mm"
   viewBox="0 0 106.39452 92.657974"
   version="1.1"
   id="svg1"
   xml:space="preserve"
   sodipodi:docname="honey1.svg"
   inkscape:version="1.3.2 (091e20e, 2023-11-25, custom)"
   xmlns:inkscape="http://www.inkscape.org/namespaces/inkscape"
   xmlns:sodipodi="http://sodipodi.sourceforge.net/DTD/sodipodi-0.dtd"
   xmlns="http://www.w3.org/2000/svg"
   xmlns:svg="http://www.w3.org/2000/svg"><sodipodi:namedview
     id="namedview1"
     pagecolor="#ffffff"
     bordercolor="#000000"
     borderopacity="0.25"
     inkscape:showpageshadow="2"
     inkscape:pageopacity="0.0"
     inkscape:pagecheckerboard="0"
     inkscape:deskcolor="#d1d1d1"
     inkscape:document-units="mm"
     inkscape:zoom="3.3494824"
     inkscape:cx="200.92657"
     inkscape:cy="175.10168"
     inkscape:window-width="2560"
     inkscape:window-height="1369"
     inkscape:window-x="2552"
     inkscape:window-y="-8"
     inkscape:window-maximized="1"
     inkscape:current-layer="svg1" /><defs
     id="defs1" /><path
     id="path1"
     style="fill:#ffffff;fill-opacity:1;stroke:#ffffff;stroke-width:0.0240671;stroke-dasharray:none;stroke-opacity:1"
     d="m 103.35198,0.01918621 c -1.56371,-0.07922 -5.158793,0.491371 -14.147973,2.19779799 -13.10777,2.48826 -32.13158,6.673675 -43.0444,9.3978758 l -0.5886,-2.3285398 c -0.52691,-2.084278 -2.02841,-4.429148 -3.57032,-5.575887 l -2.66082,-1.979207 -2.99207,1.131714 -2.99155,1.131197 -2.3983,-1.890324 c -2.95514,-2.32907799 -4.85669,-2.38110899 -7.92717,-0.217041 -1.30577,0.920299 -4.088197,1.677618 -6.183081,1.683618 -3.237062,0.0088 -4.102127,0.474162 -5.761405,3.100069 -1.2506821,1.979278 -2.7443931,3.103241 -4.1563361,3.126941 -2.408537,0.0405 -6.91792401,3.9867158 -6.91792401,6.0538938 0,3.883456 6.70989701,27.97385 8.27494701,29.709298 1.487651,1.649617 2.5712341,1.914197 6.1283091,1.494487 2.916917,-0.34419 4.926387,-0.0656 6.184635,0.85782 2.477875,1.81843 6.716615,1.7376 8.286835,-0.15813 0.85047,-1.0268 2.14778,-1.34944 3.9641,-0.98547 3.7233,0.74613 7.20999,-1.072055 8.35246,-4.355802 0.75693,-2.175598 1.54204,-2.753837 3.73982,-2.753837 4.53191,0 6.33867,-2.876148 5.6255,-8.956042 l -0.60307,-5.140255 15.59233,-3.67006 c 7.34256,-1.728108 12.07434,-2.866835 15.15619,-3.893819 14.32963,-3.553475 22.310773,-5.78086 23.659023,-6.624402 2.92213,-1.8282528 2.56273,-10.54963479 -0.46509,-11.28354879 -0.15027,-0.03642 -0.33265,-0.06103 -0.55604,-0.07235 z M 15.82657,57.945879 c -1.137475,-0.007 -9.4710011,12.03378 -10.4350221,15.07712 -0.923565,2.91562 1.889344,9.2286 4.9630051,11.13834 10.741654,6.67405 20.206054,-5.84023 12.627654,-16.69666 -1.62545,-2.32854 -3.677862,-5.42113 -4.560963,-6.87296 -0.883102,-1.45183 -2.050691,-2.64284 -2.594674,-2.64584 z m 19.457727,14.05651 c -1.39586,0.20187 -7.20883,8.30604 -7.95714,11.29337 -0.63101,2.51908 1.59587,7.81509 3.63131,8.63565 3.67571,1.48182 8.33104,0.58251 10.35957,-2.00143 3.30762,-4.21322 1.82296,-8.77274 -5.81618,-17.85886 -0.051,-0.0606 -0.1245,-0.0822 -0.21756,-0.0687 z" /></svg>
