<?xml version="1.0" encoding="UTF-8" standalone="no"?>
<!-- Created with Inkscape (http://www.inkscape.org/) -->

<svg
   width="210mm"
   height="297mm"
   viewBox="0 0 210 297"
   version="1.1"
   id="svg1"
   xml:space="preserve"
   inkscape:version="1.3.2 (091e20e, 2023-11-25, custom)"
   sodipodi:docname="icons.svg"
   xmlns:inkscape="http://www.inkscape.org/namespaces/inkscape"
   xmlns:sodipodi="http://sodipodi.sourceforge.net/DTD/sodipodi-0.dtd"
   xmlns="http://www.w3.org/2000/svg"
   xmlns:svg="http://www.w3.org/2000/svg"><sodipodi:namedview
     id="namedview1"
     pagecolor="#ffffff"
     bordercolor="#000000"
     borderopacity="0.25"
     inkscape:showpageshadow="2"
     inkscape:pageopacity="0.0"
     inkscape:pagecheckerboard="0"
     inkscape:deskcolor="#d1d1d1"
     inkscape:document-units="mm"
     inkscape:zoom="0.97890839"
     inkscape:cx="378.99358"
     inkscape:cy="414.23692"
     inkscape:window-width="1920"
     inkscape:window-height="991"
     inkscape:window-x="-9"
     inkscape:window-y="-9"
     inkscape:window-maximized="1"
     inkscape:current-layer="svg1" /><defs
     id="defs1" /><path
     style="fill:#000000;stroke-width:0.166689"
     d="m 156.95011,95.133633 c -0.29109,-0.172483 -0.56893,-0.335913 -0.61745,-0.363175 -0.33212,-0.186635 -1.35529,-0.878961 -1.85233,-1.253394 -1.58295,-1.19243 -3.12002,-2.724379 -4.27697,-4.262716 -2.48322,-3.301751 -3.98743,-7.398005 -4.39707,-11.974028 -0.11517,-1.286493 -0.0294,-5.097974 0.12016,-5.339967 0.009,-0.01455 0.49843,-0.03958 1.08763,-0.05561 2.8874,-0.07856 5.02515,-0.610443 7.2362,-1.800402 1.07362,-0.577812 1.7424,-1.082629 2.95435,-2.230043 l 0.34274,-0.324481 0.0841,0.05893 c 0.0463,0.03241 0.27918,0.246592 0.51755,0.475958 2.59387,2.495749 5.75397,3.6994 10.04739,3.826946 l 1.01437,0.03013 0.0999,1.102581 c 0.24626,2.717082 -0.014,5.822836 -0.71163,8.491597 -1.54599,5.914236 -4.99999,10.452829 -10.31565,13.554827 -0.35821,0.209044 -0.68567,0.379257 -0.7277,0.378264 -0.042,-8.23e-4 -0.31456,-0.142932 -0.60564,-0.315416 z m 1.4113,-1.525238 c 3.52205,-2.199896 6.34359,-5.405258 7.85077,-8.91873 0.0884,-0.206182 0.1876,-0.434416 0.22034,-0.507186 0.74723,-1.660719 1.46383,-4.570925 1.6507,-6.703693 0.13077,-1.492447 0.1425,-3.685825 0.0228,-4.260214 l -0.0238,-0.114511 -0.64851,-0.02815 c -3.63531,-0.157754 -7.30229,-1.540951 -9.54614,-3.600844 -0.33581,-0.308281 -0.31281,-0.305636 -0.57014,-0.0656 -0.75737,0.706424 -1.90094,1.463022 -3.08239,2.039345 -0.60633,0.295766 -0.80996,0.382975 -1.51876,0.650437 -1.47023,0.55478 -3.80312,0.991262 -5.29805,0.991262 -0.20021,0 -0.37395,0.01608 -0.3861,0.03575 -0.1288,0.208397 -0.11501,3.188973 0.0206,4.462793 0.3828,3.594586 1.45383,6.811682 3.19351,9.592452 1.67705,2.680671 4.23898,5.140927 6.98707,6.709805 l 0.32727,0.186834 0.13581,-0.06962 c 0.0747,-0.03822 0.37398,-0.218333 0.66506,-0.400153 z m -1.17482,-1.162275 c -0.54356,-0.329245 -1.72628,-1.144714 -1.84625,-1.272972 -0.0121,-0.01297 -0.1312,-0.111944 -0.26462,-0.219961 -3.60768,-2.920829 -5.93567,-7.133488 -6.67846,-12.085147 -0.17854,-1.190124 -0.22013,-1.799984 -0.22196,-3.254175 -0.002,-1.576252 -0.034,-1.46313 0.41504,-1.464198 0.65944,-0.0015 2.29664,-0.259084 3.26584,-0.513692 1.95248,-0.512907 3.93189,-1.490061 5.3787,-2.655235 l 0.32889,-0.264861 0.26651,0.209683 c 0.14658,0.115322 0.37236,0.292278 0.50173,0.393233 1.92798,1.504502 5.13132,2.628489 8.04919,2.824297 0.28233,0.01895 0.52841,0.04955 0.54684,0.06801 0.0685,0.06861 0.0331,2.664325 -0.0472,3.466152 -0.61993,6.185517 -3.48224,11.135707 -8.29888,14.352397 -0.41236,0.275387 -0.81203,0.532015 -0.88815,0.570283 l -0.13839,0.06957 z"
     id="path11" /><path
     style="fill:#000000;stroke-width:0.295292"
     d="m 85.436474,62.040058 c -0.85857,-0.14219 -1.62412,-0.70514 -2.00013,-1.47082 -0.19272,-0.39245 -0.21645,-0.52643 -0.2164,-1.22207 5e-5,-0.69419 0.0231,-0.82484 0.20672,-1.17194 0.27337,-0.51676 0.78627,-1.01288 1.31623,-1.27316 0.37083,-0.18213 0.52732,-0.2113 1.13339,-0.2113 0.6097,0 0.76159,0.0286 1.14261,0.2158 0.52315,0.25692 1.11022,0.85814 1.33667,1.36889 0.22829,0.51489 0.27478,1.37728 0.10263,1.90359 -0.42044,1.28544 -1.7082,2.07855 -3.02172,1.86101 z m 1.17127,-1.58267 c 0.98569,-0.6523 0.61235,-2.24619 -0.557,-2.378 -0.46948,-0.0529 -0.85871,0.0873 -1.14388,0.4121 -0.29783,0.33921 -0.41393,0.75844 -0.32185,1.16215 0.0959,0.42034 0.30024,0.67657 0.70988,0.89005 0.4325,0.22538 0.887,0.19551 1.31285,-0.0863 z m 6.15569,1.58021 c -0.91411,-0.15046 -1.76354,-0.84233 -2.08473,-1.69806 -0.13283,-0.35389 -0.16147,-0.57395 -0.13932,-1.0705 0.048,-1.07534 0.57846,-1.89103 1.53541,-2.36097 0.38441,-0.18877 0.5348,-0.2173 1.14566,-0.2173 0.6097,0 0.76158,0.0286 1.14261,0.2158 0.52315,0.25692 1.11022,0.85814 1.33667,1.36889 0.19416,0.43791 0.26907,1.331 0.14888,1.77488 -0.36064,1.33191 -1.72548,2.21105 -3.08518,1.98726 z m 1.01165,-1.47203 c 0.49819,-0.22626 0.69545,-0.56467 0.69545,-1.19314 0,-0.405 -0.036,-0.56989 -0.1611,-0.7374 -0.25575,-0.34255 -0.5363,-0.51301 -0.91453,-0.55564 -0.46948,-0.0529 -0.8587,0.0873 -1.14387,0.4121 -0.61357,0.69882 -0.41304,1.69809 0.41637,2.07479 0.40344,0.18323 0.70307,0.18304 1.10768,-5.9e-4 z m -5.59398,-4.35839 c -0.4874,-0.0515 -1.74385,-0.35145 -2.30482,-0.55028 -1.45159,-0.5145 -2.73901,-1.32133 -3.68371,-2.30862 -0.91761,-0.95898 -1.4777,-1.87411 -1.81135,-2.95958 -0.17739,-0.5771 -0.35856,-1.74588 -0.28827,-1.85962 0.0705,-0.11402 -0.11706,-0.77951 -0.35342,-1.25418 -0.22486,-0.45156 -0.76063,-1.00629 -1.2791,-1.32435 -0.16833,-0.10326 -0.59021,-0.28309 -0.9375,-0.39961 -0.56829,-0.19068 -0.65253,-0.20095 -0.84246,-0.10274 -0.14157,0.0732 -0.48266,0.10913 -1.03641,0.10913 -0.82231,0 -0.82642,-7.3e-4 -1.10251,-0.25398 -0.50615,-0.46384 -0.4044,-1.25543 0.20129,-1.56604 0.41359,-0.2121 1.74083,-0.16332 2.07043,0.0761 0.12891,0.0936 0.46292,0.22552 0.74223,0.29307 0.27931,0.0675 0.84185,0.28635 1.25007,0.48624 1.25419,0.61411 2.15639,1.65253 2.53042,2.91249 0.0693,0.2334 0.12598,0.54103 0.12598,0.68363 v 0.25927 h 8.87779 8.87778 l -0.0548,0.55667 c -0.35804,3.63352 -3.58036,6.56197 -7.89548,7.17543 -0.51461,0.0732 -2.48557,0.0904 -3.08611,0.027 z m 2.83474,-9.41932 c -0.0876,-0.31154 -0.57253,-2.0255 -1.07761,-3.80881 -0.50507,-1.7833 -0.93375,-3.29775 -0.95261,-3.36543 -0.0713,-0.25565 1.66763,-0.48161 2.90372,-0.37732 3.80054,0.32066 6.92742,3.5473 7.20454,7.43437 l 0.0487,0.68363 h -3.98375 -3.98375 z"
     id="path1" /><path
     style="fill:#000000;stroke-width:0.286473;fill-opacity:1;stroke:#000000;stroke-opacity:1"
     d="m 115.43326,61.255926 c -0.29775,-0.07011 -0.57343,-0.276031 -0.78867,-0.58917 -0.20406,-0.296865 -0.22632,-0.867284 -0.0473,-1.21337 0.11142,-0.215453 1.51127,-1.556374 4.30025,-4.119201 0.60861,-0.55926 1.52445,-1.404946 2.0352,-1.879295 l 0.92863,-0.862453 0.57976,0.630064 c 0.31888,0.346538 0.57977,0.67214 0.57977,0.723561 0,0.08809 -0.84465,1.049938 -1.89022,2.152489 -0.25697,0.270972 -1.17802,1.260108 -2.04677,2.198084 -2.40412,2.595668 -2.67564,2.864538 -2.94809,2.919232 -0.13186,0.02645 -0.29091,0.05876 -0.35344,0.07179 -0.0626,0.01298 -0.21961,-0.0014 -0.34906,-0.03174 z m 15.53786,0.0014 c -0.12964,-0.03139 -0.30178,-0.10496 -0.38253,-0.163533 -0.12546,-0.09099 -1.53821,-1.59591 -3.55056,-3.782172 -2.19969,-2.389738 -5.97877,-6.449032 -6.18748,-6.646216 -0.53974,-0.50992 -1.31253,-0.776603 -2.26378,-0.781209 -0.9055,-0.0042 -1.5932,-0.240401 -2.24478,-0.770424 -0.17159,-0.13957 -1.53165,-1.612493 -3.02237,-3.273148 -2.79969,-3.118863 -2.88068,-3.228624 -2.59398,-3.515326 0.31313,-0.313131 0.38934,-0.251969 3.26702,2.621732 1.98914,1.98639 2.78904,2.73813 2.9135,2.73813 0.0944,0 0.2553,-0.08372 0.35762,-0.186046 0.39584,-0.395835 0.41239,-0.374131 -2.54261,-3.33639 -2.21966,-2.225121 -2.72866,-2.773018 -2.72866,-2.937198 0,-0.216807 0.23921,-0.437804 0.47388,-0.437804 0.079,0 1.29032,1.153923 2.86429,2.728658 2.49519,2.496409 2.74883,2.728657 2.97996,2.728657 0.30603,0 0.50352,-0.194673 0.50352,-0.496328 0,-0.186893 -0.40112,-0.621212 -2.72866,-2.954472 -1.73813,-1.742413 -2.72866,-2.789558 -2.72866,-2.884648 0,-0.0821 0.0531,-0.225088 0.118,-0.317737 0.27286,-0.389571 0.33779,-0.342489 3.67411,2.664511 2.05731,1.854242 3.22508,2.960595 3.38014,3.202386 0.36682,0.571992 0.49279,1.038003 0.55529,2.05419 0.0504,0.818551 0.0844,0.98235 0.29135,1.402224 0.1289,0.261477 0.34713,0.594839 0.48496,0.740806 0.13783,0.145968 1.63161,1.544404 3.3195,3.107634 1.68789,1.563237 3.35935,3.115111 3.71435,3.448613 0.355,0.333502 1.26493,1.180811 2.02206,1.882907 0.75715,0.702096 1.41787,1.376126 1.46829,1.49785 0.12893,0.311248 0.0543,0.911151 -0.14875,1.196357 -0.27688,0.388838 -0.79702,0.581291 -1.26502,0.468052 z m -6.497,-9.968903 -0.59322,-0.549688 0.44162,-0.41337 c 0.24289,-0.227353 0.6418,-0.598916 0.88644,-0.825704 0.54515,-0.505328 0.80734,-0.880383 1.03009,-1.47348 0.14297,-0.380684 0.17433,-0.633831 0.19254,-1.55382 0.0243,-1.228734 0.10861,-1.60266 0.55535,-2.463371 0.64248,-1.237839 2.60767,-2.700845 4.75045,-3.536508 0.51702,-0.201635 0.71246,-0.237721 1.32642,-0.244887 0.85875,-0.01002 1.22592,0.126238 1.80847,0.671144 0.96232,0.900134 0.98787,2.07892 0.0842,3.883469 -0.81625,1.629999 -1.80565,2.98883 -2.60763,3.581284 -0.96097,0.709905 -1.63266,0.920617 -3.03695,0.952697 -1.69017,0.03858 -2.02462,0.196634 -3.34637,1.581097 l -0.8982,0.940833 z"
     id="path1-6" /><path
     id="path1-1"
     style="fill:#000000;fill-opacity:1;stroke:#000000;stroke-width:0.00542895;stroke-dasharray:none;stroke-opacity:1"
     d="m 63.332839,72.056259 c -0.35274,-0.01788 -1.1637,0.110845 -3.19144,0.495772 -2.95679,0.561289 -7.2481,1.505416 -9.70976,2.119931 l -0.13277,-0.525265 c -0.11886,-0.470161 -0.45756,-0.999108 -0.80538,-1.257783 l -0.60021,-0.446456 -0.67494,0.255281 -0.67482,0.255176 -0.541,-0.426417 c -0.66661,-0.525381 -1.09556,-0.537117 -1.78818,-0.04893 -0.29455,0.207593 -0.9222,0.378429 -1.39475,0.379784 -0.7302,0.0022 -0.92534,0.106957 -1.29963,0.699299 -0.28213,0.446478 -0.61907,0.700016 -0.93757,0.705359 -0.54331,0.0091 -1.56051,0.899305 -1.56051,1.365612 0,0.876011 1.51358,6.310213 1.86662,6.701688 0.33558,0.372113 0.58001,0.431793 1.3824,0.337116 0.65798,-0.07764 1.11127,-0.01477 1.3951,0.193508 0.55895,0.410193 1.5151,0.391959 1.86931,-0.03566 0.19184,-0.23162 0.48448,-0.304397 0.8942,-0.222295 0.83989,0.168309 1.6264,-0.241829 1.88411,-0.982562 0.17075,-0.490759 0.34785,-0.621199 0.84361,-0.621199 1.02229,0 1.42985,-0.648784 1.26898,-2.020261 l -0.13604,-1.159519 3.51725,-0.827872 c 1.6563,-0.389821 2.72367,-0.64669 3.41886,-0.87835 3.23242,-0.801579 5.03277,-1.304021 5.3369,-1.494302 0.65916,-0.412409 0.57809,-2.379739 -0.10491,-2.545298 -0.0339,-0.0082 -0.075,-0.01377 -0.12543,-0.01633 z m -19.74359,13.066846 c -0.25659,-0.0017 -2.13643,2.714518 -2.35389,3.401028 -0.20833,0.65769 0.42619,2.08175 1.11953,2.51254 2.42306,1.5055 4.558,-1.31741 2.84849,-3.76636 -0.36666,-0.52527 -0.82963,-1.222876 -1.02884,-1.550372 -0.1992,-0.327497 -0.46258,-0.596164 -0.58529,-0.596836 z m 4.38919,3.170808 c -0.31488,0.0455 -1.62614,1.87364 -1.79494,2.54751 -0.14234,0.56824 0.35999,1.76289 0.81913,1.94799 0.82915,0.33426 1.87928,0.1314 2.33687,-0.45147 0.74612,-0.95041 0.41121,-1.97892 -1.31199,-4.02853 -0.0115,-0.0137 -0.0281,-0.0186 -0.0491,-0.0155 z" /><path
     style="fill:#000000;stroke-width:0.387384"
     d="m 42.98892,59.25408 v -1.332441 h 8.60962 8.60962 v 1.332441 1.33245 h -8.60962 -8.60962 z m -0.191,-2.434264 c -0.9891,-3.093131 -1.40972,-4.696592 -1.96913,-7.506674 -0.34216,-1.71875 -0.63029,-3.12907 -0.6403,-3.134049 -0.01,-0.0048 -0.17355,-0.07097 -0.36342,-0.146689 -0.94169,-0.375436 -0.97649,-1.866861 -0.0538,-2.304725 0.44018,-0.208879 0.74256,-0.195124 1.14826,0.05217 0.69327,0.42267 0.79371,1.332012 0.21939,1.986137 -0.16633,0.18944 -0.30243,0.369704 -0.30243,0.400579 0,0.14276 1.89056,3.425406 2.4392,4.235254 1.32183,1.951207 2.34462,2.91278 2.93943,2.763487 0.78086,-0.195974 2.1158,-2.426777 3.68594,-6.159477 0.37939,-0.901959 0.82428,-1.951666 0.98864,-2.332672 0.16436,-0.381016 0.29883,-0.733904 0.29883,-0.784218 0,-0.05027 -0.161,-0.186464 -0.3578,-0.302574 -1.02935,-0.60733 -1.04329,-2.064531 -0.027,-2.817426 0.38539,-0.28549 1.20409,-0.28549 1.58949,0 1.01786,0.754039 1.00234,2.210124 -0.0301,2.819258 -0.4026,0.237541 -0.40256,0.243951 0.007,1.213975 1.88688,4.468483 2.26454,5.279494 3.12754,6.716226 0.55874,0.930192 1.11903,1.555283 1.4739,1.644342 0.85595,0.214831 2.40658,-1.615613 4.45393,-5.257661 0.51421,-0.914721 0.93493,-1.69273 0.93493,-1.72889 0,-0.03615 -0.1361,-0.220763 -0.30244,-0.410203 -0.57431,-0.654125 -0.47387,-1.563467 0.21939,-1.986137 0.40571,-0.247346 0.70809,-0.2611 1.14826,-0.05217 0.93899,0.445581 0.88243,1.966269 -0.0861,2.316524 -0.42572,0.153938 -0.36784,-0.01192 -0.97968,2.8066 -0.86665,3.992313 -1.24984,5.602623 -1.6442,6.909462 -0.22279,0.738273 -0.40508,1.365176 -0.40508,1.393114 0,0.02795 -3.9127,0.05084 -8.69491,0.05084 h -8.69493 z m 14.17057,-4.667719 c -0.40231,-0.218847 -0.82074,-0.633476 -1.34087,-1.328692 -0.40234,-0.537778 -0.51405,-0.759724 -0.44499,-0.884094 0.0507,-0.09128 0.39424,-0.695931 0.7634,-1.343552 l 0.67121,-1.177491 -0.30188,-0.236263 c -0.35995,-0.281694 -0.49192,-0.811956 -0.31087,-1.249038 0.26886,-0.649099 1.09409,-0.830011 1.57813,-0.345972 0.47991,0.479909 0.47983,1.062774 -2.1e-4,1.542816 -0.17646,0.176449 -0.24208,0.330082 -0.20419,0.478021 0.0457,0.178537 0.86902,1.603795 1.49884,2.594707 0.18799,0.295754 0.0384,0.579231 -0.7181,1.361179 -0.60071,0.620895 -0.8784,0.758141 -1.19047,0.588379 z M 45.3565,51.72028 C 45.08507,51.46639 44.67443,50.989838 44.44396,50.661283 L 44.02492,50.0639 44.5408,49.205732 c 0.28373,-0.472002 0.62713,-1.07773 0.76311,-1.34608 0.24408,-0.481683 0.24464,-0.489304 0.0434,-0.597011 -0.31443,-0.168274 -0.54148,-0.690228 -0.46879,-1.077691 0.15955,-0.850462 1.08906,-1.155677 1.68987,-0.554871 0.44237,0.442367 0.4426,1.008101 5.8e-4,1.450114 -0.22007,0.220067 -0.29825,0.379614 -0.25982,0.530224 0.0302,0.118484 0.4195,0.814874 0.86504,1.547528 l 0.81009,1.332097 -0.45254,0.588121 c -0.55661,0.723345 -1.04088,1.103731 -1.40514,1.103731 -0.18645,0 -0.4374,-0.150418 -0.77009,-0.461614 z"
     id="path1-17" /><path
     style="fill:#000000;stroke-width:0.185933"
     d="m 145.74529,57.758744 c -0.32583,-0.14757 -0.30563,0.41033 -0.30563,-8.43955 0,-6.93164 0.01,-8.04533 0.072,-8.19427 0.10403,-0.24896 0.3361,-0.33391 0.83356,-0.30511 0.36288,0.021 0.39948,0.0334 0.52925,0.17859 l 0.1394,0.15602 v 4.08239 4.08238 h 11.46395 c 12.68497,0 11.73796,-0.0252 11.88071,0.31641 0.10782,0.25806 0.10782,7.61981 0,7.87786 -0.10366,0.24809 -0.33644,0.33389 -0.82862,0.3054 -0.33616,-0.0195 -0.4016,-0.039 -0.51694,-0.15429 l -0.13205,-0.132 -0.0246,-1.97902 -0.0246,-1.97902 h -10.89665 -10.89663 l -0.0246,1.97902 -0.0246,1.97902 -0.13279,0.13274 c -0.11915,0.1191 -0.17476,0.13449 -0.54114,0.14971 -0.28757,0.0119 -0.45619,-0.005 -0.57008,-0.0563 z m 2.42427,-9.08065 c -0.64293,-0.24745 -0.99927,-0.97224 -0.78529,-1.59726 0.12547,-0.3665 0.32718,-0.58889 0.70121,-0.7731 l 0.32813,-0.1616 2.08245,-0.0157 c 2.62073,-0.0197 2.89879,0.0187 3.61608,0.49956 0.41529,0.27838 0.62532,0.59465 0.62532,0.94159 0,0.29299 -0.0716,0.7217 -0.15466,0.92588 -0.11598,0.28513 -0.0652,0.28078 -3.24963,0.27798 -2.75923,-0.002 -2.93057,-0.008 -3.16361,-0.0974 z"
     id="path1-2" /><g
     id="g11"
     transform="matrix(0.26843235,0,0,0.26843235,111.2408,69.102742)"><path
       style="fill:#000000"
       d="M -7.3208201e-7,57.804898 V 21.947308 L 0.59531127,21.720038 c 0.327422,-0.12499 2.20265603,-0.99713 4.16718803,-1.93807 1.964531,-0.94095 4.367991,-2.08586 5.3410227,-2.54426 0.973031,-0.45839 3.29475,-1.55997 5.159375,-2.44795 1.864625,-0.88797 4.759445,-2.26168 6.432935,-3.05268 1.67349,-0.791 3.252361,-1.55459 3.508603,-1.69688 0.256242,-0.1422903 2.10171,-1.0178203 4.101041,-1.9456203 3.530768,-1.63848 6.200648,-2.90526 13.504008,-6.40728 1.93537,-0.92802005 3.62071,-1.687310049767 3.74519,-1.687310049767 0.12449,0 1.93428,0.819429999767 4.02177,1.820950049767 5.82087,2.79271 9.27647,4.42866 13.25141,6.27346 1.99933,0.9279 3.8448,1.80351 4.10104,1.9458003 0.25624,0.14229 1.83512,0.9062 3.5086,1.69758 1.67349,0.79139 4.47146,2.11922 6.21771,2.95075 1.74625,0.83153 4.18703,1.98681 5.42396,2.56728 1.23693,0.58048 3.47165,1.64357 4.96604,2.36243 1.4944,0.71886 3.25057,1.53569 3.90261,1.81519 l 1.18552,0.50817 v 35.86045 35.86044 h -4.7625 -4.7625 v -29.71271 c 0,-22.75711 -0.0743,-29.78703 -0.3175,-30.03021 -0.46137,-0.46137 -72.986967,-0.46137 -73.4483347,0 -0.243175,0.24318 -0.3175,7.2731 -0.3175,30.03021 v 29.71271 H 4.7624993 -7.3208201e-7 Z M 12.107022,64.933118 c -0.03767,-15.80115 -0.01887,-28.77897 0.04176,-28.83958 0.14415,-0.14411 68.691612,-0.14411 68.835762,0 0.0606,0.0606 0.0794,13.03843 0.0418,28.83958 l -0.0685,28.72937 h -4.62787 -4.62787 v -12.83884 -12.83884 l -0.71585,-0.27216 c -0.40861,-0.15536 -2.82165,-0.2594 -5.62239,-0.24242 -2.69861,0.0164 -5.05538,0.0227 -5.23728,0.0141 -0.25892,-0.0122 -0.33161,-2.38542 -0.33478,-10.92968 -0.002,-6.41053 -0.10751,-11.07783 -0.25478,-11.31094 l -0.25072,-0.39688 -12.34466,-0.0758 -12.344661,-0.0758 -0.62683,0.41071 -0.62684,0.41072 -0.069,11.01078 -0.0691,11.01078 -5.556247,0.0314 c -3.055937,0.0172 -5.705078,0.1277 -5.886979,0.24542 -0.257086,0.16639 -0.330729,3.06794 -0.330729,13.03073 v 12.81668 h -4.627873 -4.627873 z m 11.881866,28.55298 c -0.09701,-0.097 -0.176389,-5.39529 -0.176389,-11.77396 v -11.59757 h 10.715625 10.71562 v 11.77396 11.77396 h -10.53923 c -5.796581,0 -10.618612,-0.0794 -10.715626,-0.17639 z m 23.900696,-11.59457 v -11.77696 h 10.71838 10.71837 l -0.0689,11.70782 -0.0689,11.70781 -10.64948,0.0692 -10.64948,0.0691 z m -3.90261,-14.36052 -8.00364,-0.07 v -10.05032 -10.05028 h 10.58648 10.58647 l -0.0693,10.06899 -0.0693,10.06899 -2.51354,0.0513 c -1.38245,0.0282 -6.11518,0.0198 -10.51719,-0.0187 z"
       id="path9" /><rect
       style="fill:#fefefe;fill-opacity:1;stroke:none;stroke-width:0.0402861;stroke-linejoin:round;stroke-miterlimit:0;stroke-dasharray:none;stroke-opacity:1"
       id="rect9"
       width="71.539116"
       height="59.233105"
       x="10.676879"
       y="34.587009" /><rect
       style="fill:#000000;fill-opacity:1;stroke:none;stroke-width:0.0140393;stroke-linejoin:round;stroke-miterlimit:0;stroke-dasharray:none;stroke-opacity:1"
       id="rect9-6"
       width="23.698837"
       height="21.715273"
       x="35.496765"
       y="46.400028" /><rect
       style="fill:#000000;fill-opacity:1;stroke:none;stroke-width:0.0140393;stroke-linejoin:round;stroke-miterlimit:0;stroke-dasharray:none;stroke-opacity:1"
       id="rect9-6-1"
       width="23.698837"
       height="21.715273"
       x="49.840607"
       y="71.888191" /><rect
       style="fill:#000000;fill-opacity:1;stroke:none;stroke-width:0.0140393;stroke-linejoin:round;stroke-miterlimit:0;stroke-dasharray:none;stroke-opacity:1"
       id="rect9-6-7"
       width="23.698837"
       height="21.715273"
       x="20.920202"
       y="71.753044" /></g><path
     id="path11-9"
     style="fill:#000000;fill-opacity:1;stroke:none;stroke-width:0.00754162;stroke-linejoin:round;stroke-miterlimit:0;stroke-dasharray:none;stroke-opacity:1"
     d="m 81.192753,69.162106 -6.020854,3.476143 v 6.952312 l 6.020854,3.476169 6.02085,-3.476169 v -6.952312 z m 12.9583,0.08767 -6.02056,3.475865 v 6.952312 l 6.02056,3.476168 6.020847,-3.476168 V 72.72564 Z m -6.69393,11.148916 -6.02058,3.476143 v 6.952325 l 6.02058,3.475864 6.02084,-3.475864 v -6.952325 z" /><path
     style="fill:#000000;stroke-width:0.356376"
     d="m 88.391003,156.55868 c -0.251553,-0.19929 -0.554969,-0.63702 -0.644749,-0.93027 -0.277,-0.90477 -0.854894,-3.13722 -0.857268,-3.31165 -0.0093,-0.68758 0.428191,-1.38775 1.049136,-1.67884 0.222249,-0.10419 0.416907,-0.14824 4.560017,-1.03179 1.428879,-0.30473 3.242112,-0.69406 4.029418,-0.8652 0.787312,-0.17116 2.561731,-0.55181 3.943153,-0.84591 1.38145,-0.29411 3.14258,-0.67128 3.91364,-0.83816 0.77106,-0.16688 2.53286,-0.54519 3.91514,-0.8407 1.38225,-0.29549 2.84793,-0.60969 3.25704,-0.69822 l 0.74386,-0.16096 0.15348,0.57589 c 0.0844,0.31673 0.38547,1.43355 0.66901,2.48183 0.28356,1.04826 0.50783,1.93123 0.4984,1.96216 -0.009,0.031 -0.25494,0.12186 -0.54557,0.2021 -0.29063,0.0802 -0.79506,0.22127 -1.12097,0.31339 -0.32589,0.0921 -0.85097,0.23713 -1.16683,0.32223 -0.31586,0.0851 -0.85279,0.23369 -1.19319,0.3302 -0.34038,0.0965 -0.97051,0.27308 -1.40029,0.39241 -0.42975,0.11932 -1.19606,0.33354 -1.7029,0.47604 -0.50683,0.14251 -1.29992,0.36323 -1.76241,0.49048 -0.46248,0.12726 -1.35115,0.37506 -1.97481,0.55066 -0.62366,0.17561 -1.63468,0.45749 -2.2467,0.6264 -1.273514,0.35148 -3.099069,0.85963 -4.357855,1.21303 -0.475082,0.13337 -1.376231,0.38438 -2.002551,0.55779 -0.626322,0.17341 -1.796478,0.49821 -2.600354,0.72179 -0.803876,0.22358 -1.533484,0.4171 -1.621356,0.43004 -0.530688,0.0782 -1.072609,-0.0789 -1.534486,-0.44474 z m 30.331727,0.52477 c -0.21225,-0.24964 -0.2906,-0.43482 -0.46806,-1.10675 -0.18046,-0.68326 -0.19902,-0.97086 -0.0857,-1.32652 0.0897,-0.28151 0.21537,-0.42245 0.44934,-0.50436 0.25445,-0.089 0.3987,-0.22062 0.49945,-0.45558 0.31964,-0.74536 -0.0718,-2.20997 -0.82543,-3.08807 -0.23165,-0.26984 -0.29837,-0.32362 -0.69795,-0.56179 -0.6311,-0.37624 -0.74773,-0.38507 -1.84665,-0.14147 l -0.84878,0.1882 -0.43335,-1.51497 c -0.23834,-0.83326 -0.56806,-1.96682 -0.73273,-2.51905 l -0.29936,-1.00406 0.55426,-0.13721 c 1.28182,-0.31734 1.61268,-0.46679 1.88899,-0.85322 0.17986,-0.25154 0.27271,-0.53831 0.30139,-0.93132 0.0161,-0.22108 -0.0169,-0.42913 -0.13305,-0.83622 -0.64048,-2.24588 -2.56603,-4.74441 -4.89296,-6.34899 -0.21884,-0.15089 -0.40203,-0.28884 -0.40701,-0.30669 -0.005,-0.0178 0.10276,-0.24259 0.23964,-0.49953 l 0.24882,-0.46721 0.18666,0.0549 c 0.72182,0.21243 2.07298,0.72569 3.00598,1.14185 0.819,0.36526 2.89263,1.59699 3.50092,2.07951 1.84421,1.46276 3.04936,3.04511 3.78359,4.96777 0.18635,0.48799 1.52459,5.13173 1.56933,5.44565 0.0353,0.24792 -0.0724,0.56938 -0.42163,1.25839 -0.17388,0.34289 -0.37104,0.78579 -0.43833,0.98409 -0.27787,0.81947 -0.11488,1.52641 0.50129,2.1742 0.24292,0.25534 0.41592,0.34455 0.68275,0.35214 0.20164,0.006 0.26731,0.029 0.54262,0.19259 0.46807,0.27818 0.57749,0.4599 0.75744,1.25711 0.0779,0.34528 0.13821,0.7196 0.13395,0.83179 -0.0111,0.29331 -0.12481,0.58458 -0.30749,0.78775 -0.32043,0.35633 -0.42184,0.39094 -2.69303,0.91877 -2.3957,0.55677 -2.38548,0.5558 -2.90256,0.27463 -0.18972,-0.10345 -0.32523,-0.20376 -0.41238,-0.30627 z"
     id="path2"
     inkscape:export-filename="build2.svg"
     inkscape:export-xdpi="96"
     inkscape:export-ydpi="96" /></svg>
