<?xml version="1.0" encoding="UTF-8" standalone="no"?>
<!-- Created with Inkscape (http://www.inkscape.org/) -->

<svg
   width="30.676437mm"
   height="29.380749mm"
   viewBox="0 0 30.676437 29.380749"
   version="1.1"
   id="svg1"
   xml:space="preserve"
   inkscape:version="1.3.2 (091e20e, 2023-11-25, custom)"
   sodipodi:docname="icons.svg"
   xmlns:inkscape="http://www.inkscape.org/namespaces/inkscape"
   xmlns:sodipodi="http://sodipodi.sourceforge.net/DTD/sodipodi-0.dtd"
   xmlns="http://www.w3.org/2000/svg"
   xmlns:svg="http://www.w3.org/2000/svg"><sodipodi:namedview
     id="namedview1"
     pagecolor="#ffffff"
     bordercolor="#000000"
     borderopacity="0.25"
     inkscape:showpageshadow="2"
     inkscape:pageopacity="0.0"
     inkscape:pagecheckerboard="0"
     inkscape:deskcolor="#d1d1d1"
     inkscape:document-units="mm"
     inkscape:zoom="0.97890839"
     inkscape:cx="378.99358"
     inkscape:cy="414.23692"
     inkscape:window-width="1920"
     inkscape:window-height="991"
     inkscape:window-x="-9"
     inkscape:window-y="-9"
     inkscape:window-maximized="1"
     inkscape:current-layer="svg1" /><defs
     id="defs1" /><path
     style="fill:#ffffff;fill-opacity:1;stroke-width:0.532474"
     d="m 13.416129,29.306383 c -3.27912,-0.39975 -6.5333497,-1.93915 -8.9134397,-4.21648 -6.00546,-5.74615 -6.00338,-15.02489 0.005,-20.7735105 5.1994,-4.97488995 13.2680697,-5.73646 19.3976197,-1.83088 2.32915,1.48408 4.53955,4.01097 5.55978,6.35585 0.85612,1.9676905 1.18711,3.4956105 1.20963,5.5839505 0.0228,2.11487 -0.17738,3.39545 -0.79712,5.09891 -1.77439,4.87723 -6.09434,8.52024 -11.36035,9.58014 -1.28028,0.25769 -3.81925,0.35824 -5.10076,0.20202 z m 4.09527,-6.02691 c 1.06843,-0.40539 1.27469,-0.60229 1.29564,-1.23683 0.009,-0.27313 -0.0303,-0.29197 -0.35932,-0.17227 -0.61564,0.22397 -1.88137,0.16603 -2.15813,-0.0988 -0.37487,-0.35869 -0.20249,-1.71032 0.51512,-4.03888 0.79605,-2.58309 0.92178,-4.08992 0.40217,-4.82001 -0.97847,-1.37482 -2.68428,-1.57143 -5.32318,-0.61354 -0.90159,0.32727 -0.9648,0.37907 -1.10438,0.90523 -0.14235,0.53661 -0.13603,0.55445 0.16417,0.46347 0.17173,-0.052 0.67764,-0.12691 1.12424,-0.16637 0.70616,-0.0624 0.8541,-0.0315 1.13479,0.2371 0.28346,0.27121 0.31236,0.40321 0.23724,1.08347 -0.0471,0.42604 -0.38093,1.76684 -0.74196,2.97955 -0.84599,2.84173 -0.94199,3.68573 -0.51522,4.52926 0.31592,0.62443 0.91195,1.09193 1.70366,1.33629 0.75012,0.23152 2.4811,0.0464 3.62516,-0.38769 z m 0.19417,-13.5915805 c 1.4165,-0.57991 1.85335,-2.27511 0.85733,-3.32685 -0.50688,-0.53525 -1.0421,-0.75547 -1.83603,-0.75547 -2.16635,0 -3.18342,2.29216 -1.63203,3.6781 0.66528,0.59431 1.73996,0.7607105 2.61073,0.40422 z"
     id="path3" /></svg>
