<?xml version="1.0" encoding="UTF-8" standalone="no"?>
<!-- Created with Inkscape (http://www.inkscape.org/) -->

<svg
   width="64.536461mm"
   height="51.710033mm"
   viewBox="0 0 64.536461 51.710033"
   version="1.1"
   id="svg1"
   xml:space="preserve"
   sodipodi:docname="queen1.svg"
   inkscape:version="1.3.2 (091e20e, 2023-11-25, custom)"
   xmlns:inkscape="http://www.inkscape.org/namespaces/inkscape"
   xmlns:sodipodi="http://sodipodi.sourceforge.net/DTD/sodipodi-0.dtd"
   xmlns="http://www.w3.org/2000/svg"
   xmlns:svg="http://www.w3.org/2000/svg"><sodipodi:namedview
     id="namedview1"
     pagecolor="#ffffff"
     bordercolor="#000000"
     borderopacity="0.25"
     inkscape:showpageshadow="2"
     inkscape:pageopacity="0.0"
     inkscape:pagecheckerboard="0"
     inkscape:deskcolor="#d1d1d1"
     inkscape:document-units="mm"
     inkscape:zoom="6.0018575"
     inkscape:cx="121.96224"
     inkscape:cy="97.719748"
     inkscape:window-width="2560"
     inkscape:window-height="1369"
     inkscape:window-x="2552"
     inkscape:window-y="-8"
     inkscape:window-maximized="1"
     inkscape:current-layer="svg1" /><defs
     id="defs1" /><path
     style="fill:#ffffff;fill-opacity:1"
     d="m 10.042447,48.270437 v -3.43958 h 22.224996 22.225 v 3.43958 3.43959 h -22.225 -22.224996 z m -0.493074,-6.28385 c -2.553281,-7.98465 -3.639061,-12.12385 -5.083135,-19.37786 -0.883246,-4.43681 -1.627036,-8.07743 -1.652867,-8.09027 -0.02583,-0.0129 -0.447999,-0.18324 -0.938153,-0.37866 -2.43090001,-0.96918 -2.52071001,-4.8191598 -0.138784,-5.9494598 1.136288,-0.5392 1.916849,-0.5037 2.964123,0.1348 1.789614,1.0911 2.04891,3.4384798 0.56634,5.1270398 -0.429385,0.48904 -0.780699,0.95437 -0.780699,1.03407 0,0.36852 4.880326,8.84239 6.29658,10.93296 3.412206,5.03686 6.05247,7.51908 7.587907,7.13371 2.015713,-0.50591 5.461747,-6.26452 9.514897,-15.90018 0.979391,-2.32834 2.127851,-5.03806 2.552121,-6.0216 0.42428,-0.9835498 0.77141,-1.8945198 0.77141,-2.0243898 0,-0.12987 -0.41564,-0.48135 -0.92364,-0.78108 -2.657171,-1.56777 -2.693161,-5.32941 -0.0696,-7.27292998 0.99486,-0.73698 3.10826,-0.73698 4.10313,0 2.62754,1.94646998 2.58745,5.70522998 -0.0776,7.27766998 -1.0393,0.61319 -1.0392,0.62974 0.0182,3.1337798 4.87083,11.53501 5.84574,13.62856 8.07351,17.33737 1.44233,2.4012 2.88868,4.01482 3.80475,4.24473 2.20954,0.55457 6.21236,-4.17058 11.49744,-13.57222 1.32739,-2.36128 2.41343,-4.36963 2.41343,-4.46299 0,-0.0934 -0.35131,-0.56986 -0.7807,-1.0589 -1.48257,-1.68856 -1.22327,-4.0359398 0.56634,-5.1270398 1.04727,-0.6385 1.82784,-0.674 2.96412,-0.1348 2.42392,1.15023 2.2779,5.0757598 -0.22244,5.9798998 -1.09896,0.39739 -0.94955,-0.0307 -2.52895,7.245 -2.2372,10.30584 -3.22639,14.4627 -4.24439,17.8362 -0.57511,1.9058 -1.04565,3.5241 -1.04565,3.59622 0,0.0721 -10.10033,0.13112 -22.44519,0.13112 H 9.866648 Z m 36.58013,-12.04932 c -1.03854,-0.56495 -2.11867,-1.63527 -3.46134,-3.42992 -1.0386,-1.38823 -1.32697,-1.96115 -1.14871,-2.2822 0.1309,-0.23577 1.01771,-1.79649 1.97067,-3.46827 l 1.73267,-3.03961 -0.7793,-0.60989 c -0.92915,-0.72717 -1.26983,-2.096 -0.80248,-3.22428 0.69405,-1.67559 2.82433,-2.1426 4.07384,-0.89309 1.23883,1.23883 1.23862,2.74346 -5.6e-4,3.98264 -0.4555,0.4555 -0.6249,0.85208 -0.52711,1.23398 0.11801,0.46087 2.24332,4.14005 3.86915,6.69801 0.48527,0.76347 0.0992,1.49523 -1.85371,3.51378 -1.55068,1.60277 -2.26753,1.95707 -3.07312,1.51885 z m -29.975348,-1.11471 c -0.700675,-0.6554 -1.760721,-1.88557 -2.355658,-2.73371 l -1.081704,-1.54208 1.331682,-2.21531 c 0.732425,-1.21842 1.618886,-2.78207 1.969914,-3.47479 0.630085,-1.24342 0.631515,-1.26309 0.112008,-1.54112 -0.811683,-0.4344 -1.397786,-1.78177 -1.210149,-2.78197 0.411863,-2.19541 2.811337,-2.98329 4.362262,-1.43237 1.14194,1.14194 1.142528,2.60235 0.0015,3.74337 -0.568083,0.56808 -0.769902,0.97993 -0.670713,1.36871 0.07803,0.30586 1.082907,2.10353 2.23305,3.99481 l 2.091167,3.4387 -1.168224,1.5182 c -1.436816,1.86725 -2.686903,2.84919 -3.627224,2.84919 -0.481307,0 -1.129104,-0.38831 -1.987919,-1.19163 z"
     id="path1" /></svg>
