<?xml version="1.0" encoding="UTF-8" standalone="no"?>
<!-- Created with Inkscape (http://www.inkscape.org/) -->

<svg
   width="134.45721mm"
   height="91.482849mm"
   viewBox="0 0 134.45721 91.482849"
   version="1.1"
   id="svg1"
   xml:space="preserve"
   sodipodi:docname="rest1.svg"
   inkscape:version="1.3.2 (091e20e, 2023-11-25, custom)"
   xmlns:inkscape="http://www.inkscape.org/namespaces/inkscape"
   xmlns:sodipodi="http://sodipodi.sourceforge.net/DTD/sodipodi-0.dtd"
   xmlns="http://www.w3.org/2000/svg"
   xmlns:svg="http://www.w3.org/2000/svg"><sodipodi:namedview
     id="namedview1"
     pagecolor="#ffffff"
     bordercolor="#000000"
     borderopacity="0.25"
     inkscape:showpageshadow="2"
     inkscape:pageopacity="0.0"
     inkscape:pagecheckerboard="0"
     inkscape:deskcolor="#d1d1d1"
     inkscape:document-units="mm"
     inkscape:zoom="3.3925075"
     inkscape:cx="254.08934"
     inkscape:cy="172.88097"
     inkscape:window-width="2560"
     inkscape:window-height="1369"
     inkscape:window-x="2552"
     inkscape:window-y="-8"
     inkscape:window-maximized="1"
     inkscape:current-layer="svg1" /><defs
     id="defs1" /><path
     style="fill:#ffffff;fill-opacity:1"
     d="m 1.6450625,91.131324 c -1.75240198,-0.79367 -1.64374098,2.20688 -1.64374098,-45.39032 0,-37.2803674 0.05265,-43.2700754 0.387352,-44.0711444 0.559467,-1.33899295 1.80762398,-1.79586095 4.48312898,-1.64097895 1.951661,0.11298 2.148505,0.179404 2.84642,0.960507 L 8.4679875,1.8285206 V 23.784764 45.741004 H 70.124401 c 68.223439,0 63.130169,-0.13564 63.897899,1.70177 0.57989,1.38788 0.57989,40.9815 0,42.36938 -0.55752,1.33432 -1.80949,1.79575 -4.45653,1.64252 -1.80803,-0.10467 -2.15996,-0.2097 -2.78028,-0.8298 l -0.71022,-0.70996 -0.13229,-10.64372 -0.13229,-10.64373 H 67.205486 8.6002795 l -0.132292,10.64373 -0.132292,10.64372 -0.714198,0.71394 c -0.640797,0.64057 -0.939915,0.72332 -2.910417,0.80517 -1.546635,0.0643 -2.453482,-0.0253 -3.066018,-0.3027 z M 14.683507,42.293004 c -3.457859,-1.33088 -5.3743605,-5.22898 -4.223539,-8.59054 0.674818,-1.97115 1.759653,-3.1672 3.771345,-4.15795 l 1.764739,-0.86913 11.200043,-0.0842 c 14.095031,-0.10594 15.590535,0.10066 19.44833,2.68673 2.233507,1.49722 3.363145,3.19821 3.363145,5.06415 0,1.57578 -0.385168,3.88152 -0.831835,4.97963 -0.623772,1.53352 -0.350442,1.51014 -17.477421,1.49509 -14.839966,-0.013 -15.761467,-0.0414 -17.014807,-0.5238 z"
     id="path1" /></svg>
